:SAMPLES-PER-SECOND 30
:FULLY-SPECIFIED
:DEGREES
504
root  -4.21299 39.2029 3.87041 -177.781 -41.1573 -178.833
RightUpLeg  -22.2161 -4.64315 -2.2153
RightLeg  3.89821 -15.5622 1.20362
RightFoot  12.0066 -4.14046 20.3589
RightToes  -5.8209e-011 0 -3.6325e-017
Spine  12.7152 4.04603 0.54257
Spine1  20.3243 6.10111 -3.93649
HEad  -34.5 -31.7624 27.7152
LeftShoulder1  0.976713 -4.90358 -3.61291
LeftArm  8.32091 13.7076 -41.529
LeftForeArm  134.984 -73.3436 -142.093
LeftHand  -2.29583 -4.28751 27.358
RightShoulder  1.22458 2.99137 11.7768
RightArm  37.3459 22.2598 75.2549
RightForeArm  73.135 79.4442 78.8846
RightHand  -2.14694 7.72234 -19.1704
LeftUpLeg  -3.89982 -14.3685 -0.887283
LeftLeg  24.6276 -4.71649 -2.02071
LeftFoot  -15.0147 0.176677 2.61527
LeftToes  6.82088e-011 -2.45093e-011 5.71991e-013
505
root  -4.98669 38.7866 3.00837 -178.385 -42.8991 178.289
RightUpLeg  -21.5393 -6.02433 -2.79136
RightLeg  6.49258 -16.9328 0.625726
RightFoot  13.2041 -3.12259 14.5833
RightToes  -5.8209e-011 0 -3.6325e-017
Spine  11.5825 3.6573 -0.876362
Spine1  21.3297 4.71895 -1.79603
HEad  -31.9422 -32.4015 26.2991
LeftShoulder1  1.02738 -5.14163 -3.90399
LeftArm  6.76775 13.9149 -42.4979
LeftForeArm  131.65 -75.1375 -136.687
LeftHand  -2.11226 -4.16294 25.5744
RightShoulder  1.20568 2.85959 11.8793
RightArm  33.6405 22.3333 72.8007
RightForeArm  64.2841 79.0246 73.0796
RightHand  -2.02162 7.21437 -18.7805
LeftUpLeg  -0.766081 -12.3437 -3.5646
LeftLeg  27.769 -7.48067 -3.91202
LeftFoot  -15.6985 0.287433 5.2
LeftToes  6.82088e-011 -2.45093e-011 5.71991e-013
506
root  -5.83387 38.3465 2.11346 179.949 -44.8414 177.021
RightUpLeg  -22.0969 -7.0461 -2.15573
RightLeg  15.2808 -17.0703 -3.57171
RightFoot  9.5482 -0.828787 4.70458
RightToes  -5.8209e-011 0 -3.6325e-017
Spine  10.232 2.99161 -0.557214
Spine1  22.4305 3.32644 0.144643
HEad  -29.6084 -32.6774 24.4641
LeftShoulder1  1.23133 -5.57949 -5.78632
LeftArm  5.90248 13.7332 -43.3572
LeftForeArm  124.807 -76.5998 -130.114
LeftHand  -1.96695 -3.83893 24.6782
RightShoulder  1.30663 3.08619 12.8481
RightArm  29.0678 21.5835 69.5837
RightForeArm  53.1692 78.1799 62.919
RightHand  -1.85494 6.65977 -18.0444
LeftUpLeg  0.747332 -8.47499 -3.5416
LeftLeg  33.8966 -11.2061 -7.72753
LeftFoot  -14.9905 0.249476 5.57022
LeftToes  6.82088e-011 -2.45093e-011 5.71991e-013
507
root  -6.66418 37.9035 1.30904 176.5 -46.9403 178.22
RightUpLeg  -21.8986 -7.24003 -0.874962
RightLeg  24.8359 -16.8893 -8.63853
RightFoot  3.55025 0.109066 -0.387319
RightToes  -5.8209e-011 0 -3.6325e-017
Spine  9.71253 1.73626 1.90154
Spine1  22.7758 2.02522 1.02822
HEad  -29.1039 -32.0207 23.7387
LeftShoulder1  1.55552 -5.93161 -9.08335
LeftArm  4.59021 13.7923 -44.7144
LeftForeArm  120.039 -77.551 -124.641
LeftHand  -1.85148 -3.79776 23.3904
RightShoulder  1.49974 3.30774 15.2741
RightArm  24.2902 20.5453 65.3141
RightForeArm  43.0732 76.5547 50.601
RightHand  -1.76741 6.62651 -17.2723
LeftUpLeg  -0.0522809 -4.2921 0.10166
LeftLeg  43.6456 -15.8672 -15.3531
LeftFoot  -11.0203 0.145625 -2.49914
LeftToes  6.82088e-011 -2.45093e-011 5.71991e-013
508
root  -7.40694 37.5454 0.708047 171.672 -48.3485 -178.737
RightUpLeg  -19.9322 -7.15379 0.0545917
RightLeg  30.8508 -16.8756 -10.8165
RightFoot  -0.932258 -0.167797 1.81981
RightToes  -5.8209e-011 0 -3.6325e-017
Spine  10.2968 0.29586 5.09292
Spine1  22.6093 0.766886 1.9279
HEad  -30.6164 -30.5231 24.9332
LeftShoulder1  1.87066 -5.94078 -12.7835
LeftArm  1.27883 15.1452 -48.5583
LeftForeArm  118.942 -78.3355 -120.02
LeftHand  -1.82162 -4.22471 22.042
RightShoulder  1.68437 3.42267 17.7878
RightArm  19.7751 19.6872 60.8829
RightForeArm  32.8904 73.0676 36.8177
RightHand  -1.87688 7.14061 -17.5745
LeftUpLeg  -2.04634 -1.67393 5.43751
LeftLeg  53.664 -18.5321 -24.5073
LeftFoot  -1.99063 1.666 -18.8112
LeftToes  6.82088e-011 -2.45093e-011 5.71991e-013
509
root  -8.08042 37.4422 0.262154 167.966 -47.6925 -176.057
RightUpLeg  -17.3626 -8.75702 1.35335
RightLeg  31.9432 -14.8489 -10.0298
RightFoot  -2.61887 -0.381546 4.69674
RightToes  -5.8209e-011 0 -3.6325e-017
Spine  10.5842 -0.334662 7.43278
Spine1  22.5679 0.145454 3.4644
HEad  -32.4049 -28.8893 27.5183
LeftShoulder1  2.04479 -5.59012 -15.714
LeftArm  -2.88115 17.316 -55.5802
LeftForeArm  115.422 -79.1049 -113.591
LeftHand  -1.90981 -4.49752 22.4525
RightShoulder  1.78335 3.52652 18.9275
RightArm  14.9037 18.5634 57.4767
RightForeArm  22.1104 66.5261 24.8244
RightHand  -2.06222 7.49659 -18.7472
LeftUpLeg  -4.12626 0.327268 9.77236
LeftLeg  59.4329 -18.0315 -29.1507
LeftFoot  7.84847 5.41428 -32.1076
LeftToes  6.82088e-011 -2.45093e-011 5.71991e-013
510
root  -8.7523 37.7079 -0.17379 167.517 -44.7222 -176.086
RightUpLeg  -14.7681 -8.6308 1.63039
RightLeg  29.7834 -13.0622 -8.20165
RightFoot  -2.74976 -0.333217 4.19196
RightToes  -5.8209e-011 0 -3.6325e-017
Spine  10.0386 0.341389 8.04574
Spine1  22.1681 0.753271 4.39487
HEad  -32.8532 -27.8516 29.8244
LeftShoulder1  2.11797 -5.27164 -17.4994
LeftArm  -4.69381 19.3213 -62.7653
LeftForeArm  107.107 -79.5963 -105.723
LeftHand  -2.06639 -4.48846 24.2469
RightShoulder  1.73878 3.33176 19.0031
RightArm  9.23471 16.9106 55.5557
RightForeArm  11.9842 56.7452 16.3616
RightHand  -2.1605 7.49649 -19.6068
LeftUpLeg  -5.74262 3.17526 11.6066
LeftLeg  60.541 -15.6794 -27.0314
LeftFoot  11.5438 6.95014 -33.8445
LeftToes  6.82088e-011 -2.45093e-011 5.71991e-013
